<?xml version="1.0" encoding="UTF-8"?>
<svg id="Layer_1" xmlns="http://www.w3.org/2000/svg" version="1.1" viewBox="0 0 56.69 56.69">
  <!-- Generator: Adobe Illustrator 30.0.0, SVG Export Plug-In . SVG Version: 2.1.1 Build 123)  -->
  <defs>
    <style>
      .st0 {
        fill: #fff;
      }
    </style>
  </defs>
  <path class="st0" d="M51.02,27.44l-.85-.74c-.2-.11-.97-.39-1.15-.39h-3.85v3.91c1.98.11,4.12-.25,5.29,1.75.16.27.57,1.32.57,1.59v1.7c-1.66-1.77-4.4-.78-6.57-1.02-.66,3.63-2.74,7.14-5.61,9.45-7.93,6.37-19.66,3.76-29.08,4.32l.65-.89c.52-.92.9-1.92,1.03-2.97l.22-9.9h-2.93c-.11,0-.81-.29-.96-.37-1.66-.84-2.2-2.82-2.07-4.56.41.15.67.52,1.09.71.19.08.86.32,1.01.32h3.75v-4.01h-3.03c-.09,0-1.04-.48-1.18-.57-1.35-.95-1.77-2.79-1.65-4.36.45.28,1.25,1.03,1.8,1.03h4.01l.16-.35c-.23-4.49.85-9.49-1.86-13.42h16.29c6.18.38,12.38,2.61,15.92,7.92,1.18,1.77,1.89,3.78,2.52,5.8,2.19.2,4.17-.51,5.7,1.49.23.31.78,1.34.78,1.69v1.9ZM37.76,22.4c-.58-3.97-2.36-7.86-5.93-9.95-2.61-1.53-5.33-1.78-8.3-1.87-1.97-.06-3.95.05-5.91,0v11.82h20.14ZM38.17,26.3h-20.55v4.01h20.55v-4.01ZM37.76,34.22h-20.14v11.82c5.25-.08,11.4.58,15.67-3.08,2.6-2.23,3.91-5.4,4.47-8.74Z"/>
</svg>